# xmcd CD database file
#
# Track frame offsets:
#	150
#	16860
#	44199
#	65758
#	84620
#	99872
#	115983
#	140195
#	151365
#	172108
#	196811
#	225797
#
# Disc length: 3229 seconds
#
# Revision: 2
# Processed by: cddbd v1.4PL0 Copyright (c) Steve Scherf et al.
# Submitted via: jetAudio 5
#
DISCID=9f0c9b0c
DTITLE=Matthew Lien - Touching The Earth
DYEAR=1900
DGENRE=
TTITLE0=Maame Asaase (Mother Earth)
TTITLE1=Tikal
TTITLE2=Common Thread
TTITLE3=The Flower and the Stream
TTITLE4=Blood for Ivory
TTITLE5=She
TTITLE6=Via Con Dios
TTITLE7=Kicking Up The Dirt
TTITLE8=Sweet Earth of the Kao-Ping: The Highlands
TTITLE9=Liberation
TTITLE10=When the Earth Calls Her Children Home
TTITLE11=Parting
EXTD=
EXTT0=
EXTT1=
EXTT2=
EXTT3=
EXTT4=
EXTT5=
EXTT6=
EXTT7=
EXTT8=
EXTT9=
EXTT10=
EXTT11=
PLAYORDER=
